<svg width="31" height="31" viewBox="0 0 31 31" fill="none" xmlns="http://www.w3.org/2000/svg">
<g clip-path="url(#clip0_15_1129)">
<g clip-path="url(#clip1_15_1129)">
<path d="M6.09474 8.46985H10.9701C11.3016 8.46985 11.6196 8.60156 11.854 8.836C12.0885 9.07044 12.2202 9.3884 12.2202 9.71995C12.2202 10.0515 12.0885 10.3695 11.854 10.6039C11.6196 10.8383 11.3016 10.97 10.9701 10.97H5.96973V14.7203H10.9701C11.3016 14.7203 11.6196 14.852 11.854 15.0865C12.0885 15.3209 12.2202 15.6389 12.2202 15.9704C12.2202 16.302 12.0885 16.6199 11.854 16.8544C11.6196 17.0888 11.3016 17.2205 10.9701 17.2205H5.96973C5.96973 18.8782 6.62826 20.4681 7.80045 21.6403C8.97264 22.8124 10.5625 23.471 12.2202 23.471H14.7204V25.9712H12.2202C11.8886 25.9712 11.5707 26.1029 11.3362 26.3373C11.1018 26.5717 10.9701 26.8897 10.9701 27.2212C10.9701 27.5528 11.1018 27.8708 11.3362 28.1052C11.5707 28.3396 11.8886 28.4713 12.2202 28.4713H19.7207C20.0523 28.4713 20.3703 28.3396 20.6047 28.1052C20.8391 27.8708 20.9708 27.5528 20.9708 27.2212C20.9708 26.8897 20.8391 26.5717 20.6047 26.3373C20.3703 26.1029 20.0523 25.9712 19.7207 25.9712H17.2206V23.471H19.7207C21.3785 23.471 22.9683 22.8124 24.1405 21.6403C25.3127 20.4681 25.9712 18.8782 25.9712 17.2205H20.9708C20.6393 17.2205 20.3213 17.0888 20.0869 16.8544C19.8525 16.6199 19.7207 16.302 19.7207 15.9704C19.7207 15.6389 19.8525 15.3209 20.0869 15.0865C20.3213 14.852 20.6393 14.7203 20.9708 14.7203H25.9712V10.97H20.9708C20.6393 10.97 20.3213 10.8383 20.0869 10.6039C19.8525 10.3695 19.7207 10.0515 19.7207 9.71995C19.7207 9.3884 19.8525 9.07044 20.0869 8.836C20.3213 8.60156 20.6393 8.46985 20.9708 8.46985H25.8462C25.5576 7.05826 24.7903 5.78965 23.6742 4.87852C22.5581 3.96739 21.1615 3.46966 19.7207 3.46948H12.2202C10.7794 3.46966 9.38286 3.96739 8.26673 4.87852C7.1506 5.78965 6.38336 7.05826 6.09474 8.46985Z" fill="#0A0A0A"/>
</g>
</g>
<defs>
<clipPath id="clip0_15_1129">
<rect width="30.0022" height="30.0022" fill="white" transform="translate(0.969238 0.96936)"/>
</clipPath>
<clipPath id="clip1_15_1129">
<rect width="30.0022" height="30.0022" fill="white" transform="translate(0.969238 0.96936)"/>
</clipPath>
</defs>
</svg>
