<svg width="30" height="30" viewBox="0 0 30 30" fill="none" xmlns="http://www.w3.org/2000/svg">
<g clip-path="url(#clip0_38_34)">
<g clip-path="url(#clip1_38_34)">
<path d="M5.12538 7.50049H10.0007C10.3323 7.50049 10.6502 7.6322 10.8847 7.86664C11.1191 8.10108 11.2508 8.41904 11.2508 8.75059C11.2508 9.08213 11.1191 9.4001 10.8847 9.63454C10.6502 9.86897 10.3323 10.0007 10.0007 10.0007H5.00037V13.751H10.0007C10.3323 13.751 10.6502 13.8827 10.8847 14.1171C11.1191 14.3515 11.2508 14.6695 11.2508 15.0011C11.2508 15.3326 11.1191 15.6506 10.8847 15.885C10.6502 16.1194 10.3323 16.2511 10.0007 16.2511H5.00037C5.00037 17.9089 5.6589 19.4987 6.83109 20.6709C8.00327 21.8431 9.5931 22.5016 11.2508 22.5016H13.751V25.0018H11.2508C10.9193 25.0018 10.6013 25.1335 10.3669 25.3679C10.1324 25.6024 10.0007 25.9203 10.0007 26.2519C10.0007 26.5834 10.1324 26.9014 10.3669 27.1358C10.6013 27.3703 10.9193 27.502 11.2508 27.502H18.7514C19.0829 27.502 19.4009 27.3703 19.6353 27.1358C19.8698 26.9014 20.0015 26.5834 20.0015 26.2519C20.0015 25.9203 19.8698 25.6024 19.6353 25.3679C19.4009 25.1335 19.0829 25.0018 18.7514 25.0018H16.2512V22.5016H18.7514C20.4091 22.5016 21.9989 21.8431 23.1711 20.6709C24.3433 19.4987 25.0019 17.9089 25.0019 16.2511H20.0015C19.6699 16.2511 19.352 16.1194 19.1175 15.885C18.8831 15.6506 18.7514 15.3326 18.7514 15.0011C18.7514 14.6695 18.8831 14.3515 19.1175 14.1171C19.352 13.8827 19.6699 13.751 20.0015 13.751H25.0019V10.0007H20.0015C19.6699 10.0007 19.352 9.86897 19.1175 9.63454C18.8831 9.4001 18.7514 9.08213 18.7514 8.75059C18.7514 8.41904 18.8831 8.10108 19.1175 7.86664C19.352 7.6322 19.6699 7.50049 20.0015 7.50049H24.8768C24.5882 6.0889 23.821 4.82028 22.7049 3.90916C21.5887 2.99803 20.1922 2.5003 18.7514 2.50012H11.2508C9.81003 2.5003 8.4135 2.99803 7.29737 3.90916C6.18124 4.82028 5.414 6.0889 5.12538 7.50049Z" fill="white"/>
</g>
</g>
<defs>
<clipPath id="clip0_38_34">
<rect width="30.0022" height="30.0022" fill="white"/>
</clipPath>
<clipPath id="clip1_38_34">
<rect width="30.0022" height="30.0022" fill="white"/>
</clipPath>
</defs>
</svg>
